<?xml version="1.0" encoding="UTF-8" standalone="no"?>
<!DOCTYPE svg PUBLIC "-//W3C//DTD SVG 1.1//EN" "http://www.w3.org/Graphics/SVG/1.1/DTD/svg11.dtd">
<svg width="100%" height="100%" viewBox="0 0 4815 1688" version="1.1" xmlns="http://www.w3.org/2000/svg" xmlns:xlink="http://www.w3.org/1999/xlink" xml:space="preserve" xmlns:serif="http://www.serif.com/" style="fill-rule:evenodd;clip-rule:evenodd;stroke-linejoin:round;stroke-miterlimit:2;">
    <path id="path1948" d="M2623.12,1687.05L2101.3,1687.05L2101.3,275.043C2101.3,124.44 2226.14,2.763 2378.3,2.764L2620.27,2.764L2623.12,1687.05ZM4814.95,515.306L4145.98,515.306C3959.5,515.306 3802.55,673.403 3802.55,853.686L3802.55,1687.05L3276.56,1687.05L3276.56,853.686C3276.56,673.403 3119.6,515.306 2933.13,515.306L2692.6,515.306L2692.6,2.764C2692.6,2.764 3182.5,-15.355 3352.18,41.196C3425.19,65.448 3537.56,122.56 3539.55,122.7C3541.55,122.56 3653.92,65.448 3726.93,41.196C3882.81,-10.758 4530.32,2.764 4530.32,2.764C4682.48,2.763 4814.95,124.44 4814.95,275.043L4814.95,515.306ZM762.308,2.764C914.464,2.763 1039.3,124.44 1039.3,275.043L1039.3,961.216C1039.3,1105.05 922.703,1221.64 778.873,1221.64L594.576,1221.64C562.421,1221.64 531.586,1234.43 508.867,1257.18C486.148,1279.94 473.41,1310.79 473.46,1342.95C473.675,1480.84 473.997,1687.05 473.997,1687.05L0,1687.05L0,275.043C0,124.44 124.835,2.763 276.991,2.764L762.308,2.764ZM673.81,322.276C673.81,287.253 645.376,258.819 610.354,258.819L428.262,258.819C393.239,258.819 364.805,287.253 364.805,322.276L364.805,861.195C364.805,896.218 393.239,924.651 428.262,924.651L610.354,924.651C645.376,924.651 673.81,896.218 673.81,861.195L673.81,322.276ZM2775.27,246.86C2775.27,336.485 2848.97,409.675 2940.1,409.675C3031.57,409.675 3105.95,336.485 3105.95,246.86C3105.95,156.915 3031.57,84.046 2940.1,84.046C2848.97,84.046 2775.27,156.915 2775.27,246.86Z" style="fill:url(#_Linear1);fill-rule:nonzero;"/>
    <path id="path19481" serif:id="path1948" d="M2933.13,582.856L2692.6,582.856L2689.78,1687.05L3214.26,1687.05L3208.38,853.686C3208.38,703.083 3084.37,582.856 2933.13,582.856ZM3888.29,1278.91C3888.24,1276.81 3888.29,853.686 3888.29,853.686C3888.29,703.083 4019.53,582.856 4170.78,582.856L4814.95,582.856L4814.95,901.708L4190.03,900.926L4190.03,976.338L4814.95,973.442L4814.95,1406.8C4814.95,1557.41 4683.71,1687.05 4532.46,1687.05L3888.29,1687.05L3888.29,1365.35L4550.99,1366.14L4550.99,1283.37L3888.29,1278.91ZM1386.1,2.764C1450.21,2.764 1502.18,54.737 1502.18,118.851L1502.18,859.724C1502.18,894.746 1530.62,923.18 1565.64,923.18L1611.62,923.18C1646.65,923.18 1675.08,894.746 1675.08,859.724L1675.08,110.81C1675.08,51.137 1723.45,2.764 1783.13,2.764L1783.13,2.764C1935.28,2.763 2060.12,124.44 2060.12,275.043L2060.12,1687.05L540.656,1687.05C540.656,1687.05 538.368,1525.33 536.76,1411.6C536.351,1382.69 547.494,1354.82 567.718,1334.16C587.941,1313.51 615.572,1301.77 644.48,1301.57C904.578,1299.73 1538.9,1295.25 1538.9,1295.25C1605.49,1294.71 1594.23,1218.83 1539.03,1220.17L1369.53,1220.17C1225.7,1220.17 1109.11,1103.57 1109.11,959.744L1109.11,275.043C1109.11,124.44 1233.94,2.763 1386.1,2.764L1386.1,2.764Z" style="fill:url(#_Linear2);fill-rule:nonzero;"/>
    <defs>
        <linearGradient id="_Linear1" x1="0" y1="0" x2="1" y2="0" gradientUnits="userSpaceOnUse" gradientTransform="matrix(1.03394e-13,1688.55,-1688.55,1.03394e-13,2466.02,-18.9753)"><stop offset="0" style="stop-color:rgb(48,105,152);stop-opacity:1"/><stop offset="1" style="stop-color:rgb(107,146,177);stop-opacity:1"/></linearGradient>
        <linearGradient id="_Linear2" x1="0" y1="0" x2="1" y2="0" gradientUnits="userSpaceOnUse" gradientTransform="matrix(1.01906e-13,1664.26,-1664.26,1.01906e-13,2201.01,18.8501)"><stop offset="0" style="stop-color:rgb(255,218,88);stop-opacity:1"/><stop offset="1" style="stop-color:rgb(237,185,0);stop-opacity:1"/></linearGradient>
    </defs>
</svg>
