<?xml version="1.0" encoding="UTF-8" standalone="no"?>
<!DOCTYPE svg PUBLIC "-//W3C//DTD SVG 1.1//EN" "http://www.w3.org/Graphics/SVG/1.1/DTD/svg11.dtd">
<svg width="100%" height="100%" viewBox="0 0 513 513" version="1.1" xmlns="http://www.w3.org/2000/svg" xmlns:xlink="http://www.w3.org/1999/xlink" xml:space="preserve" xmlns:serif="http://www.serif.com/" style="fill-rule:evenodd;clip-rule:evenodd;stroke-linejoin:round;stroke-miterlimit:2;">
    <g transform="matrix(0.375378,-0.823422,0.823422,0.375378,-47.0299,409.68)">
        <path d="M197.9,253.9C210.8,260.3 222.6,268.7 232.9,279.1C243.2,289.5 251.7,301.3 258.1,314.1C363.9,284.1 414.8,234.6 439.6,188.1C464.6,141.3 466.9,90.5 461.6,50.4C421.5,45.1 370.7,47.4 323.9,72.4C277.4,97.2 227.9,148.2 197.9,253.9ZM384,312.1L384,394.3C384,419.7 370.6,443.3 348.7,456.2L260.2,508.7C252.8,513.1 243.6,513.2 236.1,508.9C228.6,504.6 226.397,496.056 224,488L179.552,322.362L24,288C15.773,285.947 7.4,283.4 3.1,275.9C-1.2,268.4 -1.1,259.2 3.3,251.8L55.8,163.3C68.8,141.4 92.3,128 117.7,128L199.9,128C281.7,-3.8 408.8,-8.5 483.9,5.3C495.5,7.4 504.6,16.5 506.7,28.1C520.5,103.2 515.8,230.3 384,312.1ZM328,144C328,122.057 346.057,104 368,104C389.943,104 408,122.057 408,144C408,165.943 389.943,184 368,184C346.057,184 328,165.943 328,144Z" style="fill:rgb(159,78,180);fill-rule:nonzero;"/>
    </g>
</svg>
