<?xml version="1.0" encoding="UTF-8" standalone="no"?>
<!DOCTYPE svg PUBLIC "-//W3C//DTD SVG 1.1//EN" "http://www.w3.org/Graphics/SVG/1.1/DTD/svg11.dtd">
<svg width="100%" height="100%" viewBox="0 0 513 513" version="1.1" xmlns="http://www.w3.org/2000/svg" xmlns:xlink="http://www.w3.org/1999/xlink" xml:space="preserve" xmlns:serif="http://www.serif.com/" style="fill-rule:evenodd;clip-rule:evenodd;stroke-linejoin:round;stroke-miterlimit:2;">
    <g transform="matrix(5.55112e-17,-1,1,5.55112e-17,-0.0317002,511.968)">
        <path d="M197.9,253.9C210.8,260.3 222.6,268.7 232.9,279.1C243.2,289.5 251.7,301.3 258.1,314.1C363.9,284.1 414.8,234.6 439.6,188.1C464.6,141.3 466.9,90.5 461.6,50.4C421.5,45.1 370.7,47.4 323.9,72.4C277.4,97.2 227.9,148.2 197.9,253.9ZM384,312.1L384,394.3C384,419.7 370.6,443.3 348.7,456.2L260.2,508.7C252.8,513.1 243.6,513.2 236.1,508.9C228.6,504.6 224,496.7 224,488L224,373.3C224,350.7 215,329 199,313C183,297 161.3,288 138.7,288L24,288C15.4,288 7.4,283.4 3.1,275.9C-1.2,268.4 -1.1,259.2 3.3,251.8L55.8,163.3C68.8,141.4 92.3,128 117.7,128L199.9,128C281.7,-3.8 408.8,-8.5 483.9,5.3C495.5,7.4 504.6,16.5 506.7,28.1C520.5,103.2 515.8,230.3 384,312.1ZM28.3,511.9C12.3,512.3 -0.3,499.7 0.1,483.7C1,446 7.7,379.7 42,345.5C76.4,311.1 132.1,311.1 166.5,345.5C200.9,379.9 200.9,435.6 166.5,470C132.3,504.3 66,511 28.3,511.9ZM78.5,447.4C91.3,446.7 109.7,443.7 119.8,433.7C131.2,422.3 131.2,403.7 119.8,392.3C108.4,380.9 89.8,380.9 78.4,392.3C68.3,402.4 65.4,420.8 64.7,433.6C64.2,441.6 70.6,447.9 78.6,447.5L78.5,447.4ZM328,144C328,122.057 346.057,104 368,104C389.943,104 408,122.057 408,144C408,165.943 389.943,184 368,184C346.057,184 328,165.943 328,144Z" style="fill:rgb(159,78,180);fill-rule:nonzero;"/>
    </g>
</svg>
