<?xml version="1.0" encoding="UTF-8" standalone="no"?>
<!DOCTYPE svg PUBLIC "-//W3C//DTD SVG 1.1//EN" "http://www.w3.org/Graphics/SVG/1.1/DTD/svg11.dtd">
<svg width="100%" height="100%" viewBox="0 0 1560 536" version="1.1" xmlns="http://www.w3.org/2000/svg" xmlns:xlink="http://www.w3.org/1999/xlink" xml:space="preserve" xmlns:serif="http://www.serif.com/" style="fill-rule:evenodd;clip-rule:evenodd;stroke-linejoin:round;stroke-miterlimit:2;">
    <g transform="matrix(5.55112e-17,-1,1,5.55112e-17,-0.0317002,523.774)">
        <path d="M197.9,253.9C210.8,260.3 222.6,268.7 232.9,279.1C243.2,289.5 251.7,301.3 258.1,314.1C363.9,284.1 414.8,234.6 439.6,188.1C464.6,141.3 466.9,90.5 461.6,50.4C421.5,45.1 370.7,47.4 323.9,72.4C277.4,97.2 227.9,148.2 197.9,253.9ZM384,312.1L384,394.3C384,419.7 370.6,443.3 348.7,456.2L260.2,508.7C252.8,513.1 243.6,513.2 236.1,508.9C228.6,504.6 224,496.7 224,488L224,373.3C224,350.7 215,329 199,313C183,297 161.3,288 138.7,288L24,288C15.4,288 7.4,283.4 3.1,275.9C-1.2,268.4 -1.1,259.2 3.3,251.8L55.8,163.3C68.8,141.4 92.3,128 117.7,128L199.9,128C281.7,-3.8 408.8,-8.5 483.9,5.3C495.5,7.4 504.6,16.5 506.7,28.1C520.5,103.2 515.8,230.3 384,312.1ZM28.3,511.9C12.3,512.3 -0.3,499.7 0.1,483.7C1,446 7.7,379.7 42,345.5C76.4,311.1 132.1,311.1 166.5,345.5C200.9,379.9 200.9,435.6 166.5,470C132.3,504.3 66,511 28.3,511.9ZM78.5,447.4C91.3,446.7 109.7,443.7 119.8,433.7C131.2,422.3 131.2,403.7 119.8,392.3C108.4,380.9 89.8,380.9 78.4,392.3C68.3,402.4 65.4,420.8 64.7,433.6C64.2,441.6 70.6,447.9 78.6,447.5L78.5,447.4ZM328,144C328,122.057 346.057,104 368,104C389.943,104 408,122.057 408,144C408,165.943 389.943,184 368,184C346.057,184 328,165.943 328,144Z" style="fill:rgb(159,78,180);fill-rule:nonzero;"/>
    </g>
    <g transform="matrix(1,0,0,1,-1766.35,-3500.05)">
        <g transform="matrix(5.91944,0,0,5.91944,-18544.2,-27215.8)">
            <path d="M3526.3,5216.28L3517.35,5191.98C3517.06,5191.19 3516.32,5190.67 3515.48,5190.67L3511.68,5190.67C3511.03,5190.67 3510.42,5190.99 3510.05,5191.53C3509.67,5192.07 3509.59,5192.75 3509.81,5193.36L3522.51,5227.66C3522.8,5228.44 3523.55,5228.96 3524.38,5228.96L3527.88,5228.96C3528.72,5228.96 3529.46,5228.44 3529.75,5227.66L3542.4,5193.36C3542.63,5192.75 3542.54,5192.06 3542.17,5191.53C3541.8,5190.99 3541.18,5190.67 3540.53,5190.67L3537.08,5190.67C3536.24,5190.67 3535.5,5191.2 3535.21,5191.98L3526.3,5216.28Z" style="fill:rgb(159,78,180);"/>
        </g>
        <path d="M2565.68,3688.44C2566.57,3684.91 2565.78,3681.17 2563.55,3678.3C2561.31,3675.42 2557.87,3673.74 2554.23,3673.74L2534.56,3673.74C2529.45,3673.74 2524.93,3677.02 2523.34,3681.87C2522.75,3683.67 2522,3685.33 2521.08,3686.85C2518.43,3691.18 2514.97,3694.47 2510.64,3696.64C2505.93,3698.99 2500.78,3700.13 2495.2,3700.13C2488.36,3700.13 2482.48,3698.61 2477.64,3695.26C2472.7,3691.85 2469.02,3686.72 2466.33,3680.11C2464.34,3675.22 2463.03,3669.64 2462.33,3663.36C2462.33,3663.36 2556.17,3663.36 2556.17,3663.36C2562.69,3663.36 2567.97,3658.07 2567.97,3651.55L2567.97,3632.61C2567.97,3617.32 2564.75,3604.26 2558.61,3593.37C2552.24,3582.07 2543.55,3573.5 2532.61,3567.61C2521.97,3561.88 2510.01,3558.95 2496.68,3558.95C2496.68,3558.95 2494.9,3558.95 2494.9,3558.95C2479.99,3558.95 2466.74,3562.52 2455.09,3569.51C2443.34,3576.56 2434.06,3586.71 2427.37,3600.1C2421.02,3612.79 2417.69,3628.34 2417.69,3646.82C2417.69,3646.82 2417.69,3651.85 2417.69,3651.85C2417.69,3670.04 2420.88,3685.48 2426.98,3698.23C2433.46,3711.79 2442.56,3722.03 2454.11,3729.1C2465.57,3736.12 2478.75,3739.72 2493.72,3739.72L2495.49,3739.72C2508.52,3739.72 2520.43,3736.88 2531.25,3731.3C2542.33,3725.58 2551.2,3717.43 2557.87,3706.82C2561.37,3701.26 2563.98,3695.14 2565.68,3688.44ZM2463.68,3624.95C2465.35,3617.7 2468.22,3611.87 2472.57,3607.56C2478.68,3601.53 2486.13,3598.54 2494.9,3598.54C2504.15,3598.54 2511.52,3601.12 2516.78,3606.93C2520.72,3611.3 2523.02,3617.35 2524.09,3624.95C2524.09,3624.95 2463.68,3624.95 2463.68,3624.95L2463.68,3624.95Z" style="fill:rgb(159,78,180);"/>
        <g transform="matrix(5.91944,0,0,5.91944,-18544.2,-27215.8)">
            <path d="M3570.34,5226.97C3570.34,5228.07 3571.23,5228.96 3572.33,5228.96L3575.73,5228.96C3576.83,5228.96 3577.73,5228.07 3577.73,5226.97L3577.73,5190.97C3577.73,5189.87 3576.83,5188.97 3575.73,5188.97L3572.33,5188.97C3571.23,5188.97 3570.34,5189.87 3570.34,5190.97L3570.34,5226.97Z" style="fill:rgb(159,78,180);"/>
        </g>
        <g transform="matrix(5.91944,0,0,5.91944,-18544.2,-27215.8)">
            <path d="M3594.73,5229.46L3595.03,5229.46C3597.56,5229.46 3599.8,5228.85 3601.75,5227.64C3603.71,5226.44 3605.27,5224.7 3606.41,5222.41C3607.51,5220.23 3608.08,5217.62 3608.08,5214.57L3608.08,5213.82C3608.08,5210.74 3607.53,5208.13 3606.47,5205.97C3605.36,5203.69 3603.82,5201.95 3601.85,5200.74C3599.9,5199.54 3597.66,5198.92 3595.13,5198.92C3595.13,5198.92 3594.83,5198.92 3594.83,5198.92C3592.35,5198.92 3590.13,5199.53 3588.16,5200.71C3586.18,5201.9 3584.6,5203.62 3583.45,5205.9C3582.36,5208.06 3581.79,5210.7 3581.79,5213.82L3581.79,5214.57C3581.79,5217.61 3582.35,5220.22 3583.42,5222.4C3584.55,5224.69 3586.1,5226.43 3588.06,5227.64C3590.02,5228.85 3592.24,5229.46 3594.73,5229.46ZM3594.93,5222.77C3593.88,5222.77 3592.92,5222.52 3592.06,5222.01C3591.21,5221.5 3590.56,5220.7 3590.06,5219.66C3589.49,5218.46 3589.23,5216.98 3589.23,5215.22L3589.23,5213.17C3589.23,5211.38 3589.48,5209.89 3590.05,5208.71C3590.55,5207.68 3591.21,5206.89 3592.06,5206.38C3592.92,5205.86 3593.88,5205.61 3594.93,5205.61C3595.99,5205.61 3596.95,5205.86 3597.81,5206.38C3598.66,5206.89 3599.33,5207.69 3599.84,5208.73C3600.43,5209.91 3600.69,5211.39 3600.69,5213.17L3600.69,5215.22C3600.69,5216.97 3600.42,5218.45 3599.84,5219.64C3599.33,5220.69 3598.66,5221.49 3597.81,5222.01C3596.95,5222.52 3595.99,5222.77 3594.93,5222.77Z" style="fill:rgb(159,78,180);"/>
        </g>
        <path d="M2978.49,3677.12C2978.87,3673.78 2977.8,3670.43 2975.56,3667.93C2973.33,3665.42 2970.12,3663.99 2966.76,3663.99L2948.35,3663.99C2942.41,3663.99 2937.4,3668.4 2936.64,3674.28C2936.04,3678.93 2934.88,3682.97 2932.99,3686.34C2930.45,3690.9 2927.09,3694.34 2922.8,3696.56C2918.11,3698.97 2912.9,3700.13 2907.19,3700.13C2897.68,3700.13 2889.76,3696.75 2883.49,3689.9C2876.55,3682.33 2873.71,3670.7 2873.71,3655.4L2873.71,3642.97C2873.71,3627.7 2876.53,3616.14 2883.45,3608.66C2889.71,3601.9 2897.53,3598.54 2906.9,3598.54C2912.56,3598.54 2917.72,3599.72 2922.37,3602.19C2926.71,3604.5 2930.12,3608.01 2932.7,3612.62C2934.62,3616.07 2935.8,3620.18 2936.39,3624.89C2937.12,3630.8 2942.15,3635.24 2948.11,3635.24L2966.85,3635.24C2970.18,3635.24 2973.36,3633.83 2975.6,3631.36C2977.84,3628.89 2978.93,3625.59 2978.6,3622.27C2977.49,3611.04 2974.45,3601.29 2969.66,3592.98C2963.3,3581.93 2954.64,3573.49 2943.72,3567.61C2933.09,3561.89 2921.03,3558.95 2907.49,3558.95C2907.49,3558.95 2906.01,3558.95 2906.01,3558.95C2894.83,3558.95 2884.64,3560.98 2875.44,3564.94C2866.05,3568.98 2857.84,3574.97 2850.83,3582.93C2844.02,3590.66 2838.72,3599.98 2835.03,3610.94C2831.5,3621.42 2829.68,3633.28 2829.68,3646.52L2829.68,3651.85C2829.68,3669.82 2832.82,3685.1 2838.81,3697.75C2845.15,3711.13 2854.08,3721.41 2865.47,3728.69C2876.89,3735.99 2889.99,3739.72 2904.82,3739.72L2906.6,3739.72C2919.84,3739.72 2931.85,3736.88 2942.65,3731.3C2953.81,3725.54 2962.72,3717.04 2969.32,3705.76C2974.18,3697.46 2977.28,3687.93 2978.49,3677.12Z" style="fill:rgb(159,78,180);"/>
        <g transform="matrix(5.91944,0,0,5.91944,-18544.2,-27215.8)">
            <path d="M3639.89,5226.97C3639.89,5228.07 3640.78,5228.96 3641.88,5228.96L3645.23,5228.96C3646.33,5228.96 3647.23,5228.07 3647.23,5226.97L3647.23,5201.42C3647.23,5200.32 3646.33,5199.42 3645.23,5199.42L3641.88,5199.42C3640.78,5199.42 3639.89,5200.32 3639.89,5201.42L3639.89,5226.97ZM3639.69,5194.17C3639.69,5195.27 3640.58,5196.16 3641.68,5196.16L3645.43,5196.16C3646.53,5196.16 3647.43,5195.27 3647.43,5194.17L3647.43,5190.97C3647.43,5189.87 3646.53,5188.97 3645.43,5188.97L3641.68,5188.97C3640.58,5188.97 3639.69,5189.87 3639.69,5190.97L3639.69,5194.17Z" style="fill:rgb(159,78,180);"/>
        </g>
        <g transform="matrix(5.91944,0,0,5.91944,-18544.2,-27215.8)">
            <path d="M3660.98,5222.59C3660.94,5222.4 3660.83,5221.84 3660.83,5221.37C3660.83,5221.37 3660.83,5206.26 3660.83,5206.26C3660.83,5206.26 3664.78,5206.26 3664.78,5206.26C3665.88,5206.26 3666.78,5205.37 3666.78,5204.27L3666.78,5201.42C3666.78,5200.32 3665.88,5199.42 3664.78,5199.42L3660.83,5199.42C3660.83,5199.42 3660.83,5193.27 3660.83,5193.27C3660.83,5192.17 3659.93,5191.27 3658.83,5191.27L3656.68,5191.27C3655.69,5191.27 3654.85,5192.01 3654.71,5192.99L3653.8,5199.42C3653.8,5199.42 3652.68,5199.42 3652.68,5199.42C3651.58,5199.42 3650.69,5200.32 3650.69,5201.42L3650.69,5204.27C3650.69,5205.37 3651.58,5206.26 3652.68,5206.26L3653.49,5206.26C3653.49,5206.26 3653.49,5221.77 3653.49,5221.77C3653.49,5223.5 3653.83,5224.9 3654.43,5226C3655.12,5227.25 3656.09,5228.15 3657.34,5228.71C3658.43,5229.2 3659.66,5229.46 3661.03,5229.46C3661.03,5229.46 3661.03,5229.46 3661.03,5229.46C3661.56,5229.46 3662.1,5229.42 3662.65,5229.34C3662.65,5229.34 3662.65,5229.34 3662.65,5229.34C3663.2,5229.26 3663.74,5229.14 3664.27,5228.97C3664.91,5228.78 3665.45,5228.52 3665.89,5228.23C3666.44,5227.86 3666.78,5227.23 3666.78,5226.57L3666.78,5223.97C3666.78,5223.3 3666.44,5222.68 3665.89,5222.31C3665.33,5221.94 3664.63,5221.87 3664.01,5222.13C3663.67,5222.27 3663.22,5222.42 3662.66,5222.57C3662.24,5222.69 3661.92,5222.77 3661.68,5222.77C3661.43,5222.77 3661.2,5222.71 3660.98,5222.59Z" style="fill:rgb(159,78,180);"/>
        </g>
        <g transform="matrix(5.91944,0,0,5.91944,-18544.2,-27215.8)">
            <path d="M3680.96,5217.07L3674.54,5200.69C3674.24,5199.93 3673.5,5199.42 3672.68,5199.42L3669.08,5199.42C3668.42,5199.42 3667.8,5199.75 3667.43,5200.3C3667.06,5200.85 3666.98,5201.55 3667.23,5202.16L3677.03,5226.57C3676.49,5227.95 3676.01,5229.04 3675.59,5229.85C3675.26,5230.49 3674.97,5230.96 3674.62,5231.21C3674.36,5231.38 3674.03,5231.42 3673.63,5231.42C3673.36,5231.42 3673.07,5231.37 3672.77,5231.27C3672.28,5231.11 3671.86,5230.97 3671.51,5230.84C3670.9,5230.62 3670.22,5230.71 3669.69,5231.09C3669.16,5231.46 3668.84,5232.07 3668.84,5232.72L3668.84,5235.57C3668.84,5236.38 3669.33,5237.11 3670.07,5237.41C3670.75,5237.69 3671.41,5237.9 3672.06,5238.04C3672.06,5238.04 3672.06,5238.04 3672.06,5238.04C3672.72,5238.19 3673.43,5238.26 3674.18,5238.26C3674.18,5238.26 3674.18,5238.26 3674.18,5238.26C3676.32,5238.26 3678.03,5237.59 3679.35,5236.34C3680.49,5235.27 3681.48,5233.84 3682.3,5232.05C3683.01,5230.48 3683.72,5228.77 3684.44,5226.9C3684.72,5226.19 3694.38,5202.16 3694.38,5202.16C3694.63,5201.55 3694.56,5200.85 3694.18,5200.3C3693.81,5199.75 3693.19,5199.42 3692.53,5199.42L3689.23,5199.42C3688.41,5199.42 3687.67,5199.93 3687.38,5200.69L3680.96,5217.07Z" style="fill:rgb(159,78,180);"/>
        </g>
        <g transform="matrix(5.91944,0,0,5.91944,-18524,-27215.8)">
            <path d="M3537.79,5276.97C3537.79,5278.07 3538.68,5278.96 3539.78,5278.96L3560.48,5278.96C3561.09,5278.96 3561.66,5278.69 3562.03,5278.22C3562.41,5277.75 3562.56,5277.14 3562.43,5276.55L3561.78,5273.55C3561.58,5272.63 3560.77,5271.97 3559.83,5271.97L3545.33,5271.97C3545.33,5271.97 3545.33,5242.67 3545.33,5242.67C3545.33,5241.57 3544.43,5240.67 3543.33,5240.67L3539.78,5240.67C3538.68,5240.67 3537.79,5241.57 3537.79,5242.67L3537.79,5276.97Z" style="fill:rgb(159,78,180);"/>
        </g>
        <g transform="matrix(5.91944,0,0,5.91944,-18504,-27215.8)">
            <path d="M3562.44,5276.97C3562.44,5278.07 3563.33,5278.96 3564.43,5278.96L3575.93,5278.96C3577.03,5278.96 3577.93,5278.07 3577.93,5276.97L3577.93,5273.97C3577.93,5272.87 3577.03,5271.97 3575.93,5271.97L3573.93,5271.97C3573.93,5271.97 3573.93,5247.66 3573.93,5247.66C3573.93,5247.66 3575.93,5247.66 3575.93,5247.66C3577.03,5247.66 3577.93,5246.77 3577.93,5245.67L3577.93,5242.67C3577.93,5241.57 3577.03,5240.67 3575.93,5240.67L3564.43,5240.67C3563.33,5240.67 3562.44,5241.57 3562.44,5242.67L3562.44,5245.67C3562.44,5246.77 3563.33,5247.66 3564.43,5247.66L3566.39,5247.66C3566.39,5247.66 3566.39,5271.97 3566.39,5271.97C3566.39,5271.97 3564.43,5271.97 3564.43,5271.97C3563.33,5271.97 3562.44,5272.87 3562.44,5273.97L3562.44,5276.97Z" style="fill:rgb(159,78,180);"/>
        </g>
        <g transform="matrix(5.91944,0,0,5.91944,-18504,-27215.8)">
            <path d="M3589.73,5255.96L3598.95,5277.75C3599.26,5278.48 3599.98,5278.96 3600.78,5278.96L3604.38,5278.96C3605.18,5278.96 3605.9,5278.49 3606.22,5277.75L3615.54,5255.89L3615.54,5276.97C3615.54,5278.07 3616.43,5278.96 3617.53,5278.96L3621.08,5278.96C3622.18,5278.96 3623.08,5278.07 3623.08,5276.97L3623.08,5242.67C3623.08,5241.57 3622.18,5240.67 3621.08,5240.67L3615.38,5240.67C3614.58,5240.67 3613.86,5241.15 3613.55,5241.89L3602.79,5267.13L3592.12,5241.89C3591.81,5241.15 3591.08,5240.67 3590.28,5240.67L3584.58,5240.67C3583.48,5240.67 3582.59,5241.57 3582.59,5242.67L3582.59,5276.97C3582.59,5278.07 3583.48,5278.96 3584.58,5278.96L3587.73,5278.96C3588.83,5278.96 3589.73,5278.07 3589.73,5276.97L3589.73,5255.96Z" style="fill:rgb(159,78,180);"/>
        </g>
        <g transform="matrix(5.91944,0,0,5.91944,-18504,-27215.8)">
            <path d="M3641.88,5279.46C3644.42,5279.46 3646.73,5279.1 3648.83,5278.38C3651.12,5277.6 3652.95,5276.3 3654.32,5274.5C3655.68,5272.72 3656.43,5270.33 3656.43,5267.32C3656.43,5265.04 3655.92,5263.19 3654.98,5261.74C3654.06,5260.3 3652.84,5259.15 3651.32,5258.28C3649.96,5257.52 3648.48,5256.88 3646.87,5256.39C3645.36,5255.92 3643.84,5255.51 3642.32,5255.15C3640.92,5254.82 3639.65,5254.44 3638.49,5254C3637.57,5253.65 3636.82,5253.2 3636.26,5252.6C3635.84,5252.15 3635.68,5251.55 3635.68,5250.82C3635.68,5250 3635.84,5249.33 3636.28,5248.84C3636.78,5248.27 3637.47,5247.88 3638.32,5247.63C3639.4,5247.32 3640.61,5247.16 3641.93,5247.16C3643.25,5247.16 3644.43,5247.34 3645.47,5247.7C3646.34,5248.01 3647.05,5248.44 3647.57,5249.05C3648.01,5249.55 3648.19,5250.2 3648.19,5250.97L3648.19,5251.97C3648.19,5253.07 3649.08,5253.96 3650.18,5253.96L3653.48,5253.96C3654.58,5253.96 3655.48,5253.07 3655.48,5251.97L3655.48,5251.32C3655.48,5248.6 3654.77,5246.43 3653.47,5244.78C3652.2,5243.16 3650.5,5241.96 3648.37,5241.21C3646.42,5240.53 3644.24,5240.17 3641.83,5240.17C3639.53,5240.17 3637.38,5240.53 3635.39,5241.24C3633.24,5242 3631.53,5243.18 3630.22,5244.74C3628.86,5246.38 3628.14,5248.46 3628.14,5251.02C3628.14,5253.24 3628.65,5255.05 3629.59,5256.47C3630.52,5257.88 3631.75,5258.99 3633.28,5259.82C3634.64,5260.56 3636.12,5261.15 3637.74,5261.61C3639.22,5262.03 3640.72,5262.43 3642.23,5262.8C3643.61,5263.15 3644.88,5263.55 3646.03,5264.02C3646.95,5264.39 3647.69,5264.88 3648.25,5265.52C3648.71,5266.06 3648.89,5266.78 3648.89,5267.67C3648.89,5268.84 3648.68,5269.78 3648.12,5270.47C3647.57,5271.17 3646.8,5271.65 3645.85,5271.94C3644.65,5272.3 3643.28,5272.47 3641.73,5272.47C3640.26,5272.47 3638.92,5272.29 3637.72,5271.9C3636.73,5271.57 3635.94,5271.09 3635.37,5270.4C3634.84,5269.75 3634.63,5268.88 3634.63,5267.82L3634.63,5267.17C3634.63,5267.08 3634.63,5266.99 3634.65,5266.9C3634.74,5266.32 3634.58,5265.73 3634.2,5265.28C3633.82,5264.83 3633.27,5264.57 3632.68,5264.57L3629.33,5264.57C3628.42,5264.57 3627.62,5265.2 3627.4,5266.09C3627.33,5266.36 3627.29,5266.67 3627.29,5267.02L3627.29,5267.47C3627.29,5270.49 3628.04,5272.87 3629.41,5274.62C3630.78,5276.37 3632.61,5277.65 3634.93,5278.41C3637.04,5279.11 3639.35,5279.46 3641.88,5279.46L3641.88,5279.46Z" style="fill:rgb(159,78,180);"/>
        </g>
    </g>
</svg>
