<?xml version="1.0" encoding="UTF-8" standalone="no"?>
<!DOCTYPE svg PUBLIC "-//W3C//DTD SVG 1.1//EN" "http://www.w3.org/Graphics/SVG/1.1/DTD/svg11.dtd">
<svg width="100%" height="100%" viewBox="0 0 64 64" version="1.1" xmlns="http://www.w3.org/2000/svg" xmlns:xlink="http://www.w3.org/1999/xlink" xml:space="preserve" xmlns:serif="http://www.serif.com/" style="fill-rule:evenodd;clip-rule:evenodd;stroke-linejoin:round;stroke-miterlimit:2;">
    <path d="M25.391,63.618L10.866,63.618C9.829,63.618 8.986,61.734 8.986,60.696L8.986,45.428C8.986,44.39 9.829,43.548 10.866,43.548L12.384,43.548L12.384,45.749C12.384,50.564 16.287,54.467 21.102,54.467L27.843,54.463C27.843,54.463 34.798,54.531 34.708,56.543C34.696,56.808 31.832,57.62 25.316,57.309C20.402,57.074 20.455,59.104 25.309,58.87C31.145,58.59 34.614,58.639 34.606,59.012C34.502,64.175 25.391,63.618 25.391,63.618ZM45.679,62.577L53.459,62.577C54.497,62.577 55.339,61.734 55.339,60.696L55.339,45.428C55.339,44.39 54.497,43.548 53.459,43.548L51.942,43.548L51.942,45.749C51.942,50.564 48.038,54.467 43.224,54.467L43.222,54.467L43.227,54.463C43.227,54.463 36.273,54.531 36.363,56.543C36.375,56.808 39.238,57.62 45.755,57.309C50.668,57.074 50.616,59.104 45.762,58.87C39.926,58.59 36.474,58.639 36.464,59.012C36.36,62.967 45.679,62.577 45.679,62.577ZM12.353,37.41L12.353,42.034L10.938,42.034C9.252,42.034 7.886,43.4 7.886,45.086L7.886,53.184L5.465,53.184C4.24,53.184 3.244,52.189 3.244,50.963L3.244,39.631C3.244,38.405 4.24,37.41 5.465,37.41L12.353,37.41ZM51.956,37.41L51.956,42.034L53.371,42.034C55.057,42.034 56.423,43.4 56.423,45.086L56.423,53.109L58.843,53.109C60.069,53.109 61.065,52.114 61.065,50.888L61.065,39.631C61.065,38.405 60.069,37.41 58.843,37.41L51.956,37.41ZM12.353,32L2.245,32C1.874,32 1.517,32.148 1.255,32.41C0.992,32.673 0.844,33.029 0.844,33.401L0.844,35.19C0.844,35.561 0.992,35.918 1.255,36.181C1.517,36.443 1.874,36.591 2.245,36.591L12.353,36.591L12.353,32ZM51.956,32L62.064,32C62.435,32 62.791,32.148 63.054,32.41C63.317,32.673 63.464,33.029 63.464,33.401L63.464,35.19C63.464,35.561 63.317,35.918 63.054,36.181C62.791,36.443 62.435,36.591 62.064,36.591L51.956,36.591L51.956,32ZM51.956,31.148L51.956,26.525L53.371,26.525C55.057,26.525 56.423,25.158 56.423,23.472L56.423,11.156L58.843,11.156C60.069,11.156 61.065,12.151 61.065,13.377L61.065,28.927C61.065,30.153 60.069,31.148 58.843,31.148L51.956,31.148ZM12.353,31.148L12.353,26.525L10.938,26.525C9.252,26.525 7.886,25.158 7.886,23.472L7.886,10.519L5.465,10.519C4.24,10.519 3.244,11.514 3.244,12.74L3.244,28.927C3.244,30.153 4.24,31.148 5.465,31.148L12.353,31.148ZM21.103,1.545L10.866,1.545C9.829,1.545 8.986,2.388 8.986,3.426L8.986,23.817C8.986,24.855 9.829,25.698 10.866,25.698L12.384,25.698L12.384,23.496C12.384,18.681 16.287,14.778 21.102,14.778L21.103,14.778L21.103,1.545ZM43.222,1.057L53.459,1.057C54.497,1.057 55.339,1.9 55.339,2.938L55.339,23.817C55.339,24.855 54.497,25.698 53.459,25.698L51.942,25.698L51.942,23.496C51.942,18.681 48.038,14.778 43.224,14.778L43.222,14.778L43.222,1.057Z" style="fill:rgb(0,173,47);"/>
    <path d="M51.111,24.284C51.111,19.499 47.226,15.614 42.441,15.614L21.803,15.614C17.018,15.614 13.133,19.499 13.133,24.284L13.133,45.165C13.133,49.95 17.018,53.835 21.803,53.835L42.441,53.835C47.226,53.835 51.111,49.95 51.111,45.165L51.111,24.284ZM24.012,45.297C25.617,45.297 26.92,46.601 26.92,48.206C26.92,49.811 25.617,51.115 24.012,51.115C22.406,51.115 21.103,49.811 21.103,48.206C21.103,46.601 22.406,45.297 24.012,45.297ZM40.314,45.297C41.919,45.297 43.222,46.601 43.222,48.206C43.222,49.811 41.919,51.115 40.314,51.115C38.708,51.115 37.405,49.811 37.405,48.206C37.405,46.601 38.708,45.297 40.314,45.297Z" style="fill:rgb(0,173,47);"/>
</svg>
